<svg width="15" height="26" viewBox="0 0 15 26" fill="none" xmlns="http://www.w3.org/2000/svg">
<path id="Vector Copy 15" d="M10.6437 13.0712L1.23654 22.1525C0.917387 22.4829 0.740787 22.9255 0.744779 23.3849C0.748771 23.8443 0.933034 24.2837 1.25789 24.6086C1.58274 24.9334 2.02218 25.1177 2.48157 25.1217C2.94097 25.1257 3.38355 24.9491 3.714 24.6299L14.2265 14.1173C14.3886 13.9561 14.5173 13.7645 14.6051 13.5534C14.6929 13.3423 14.7381 13.116 14.7381 12.8874C14.7381 12.6526 14.6926 12.4248 14.6015 12.211C14.5141 11.9986 14.3855 11.8057 14.223 11.6434L3.71049 1.13075C3.38005 0.811593 2.93747 0.634991 2.47808 0.638983C2.01868 0.642974 1.57924 0.827241 1.25439 1.15209C0.929535 1.47695 0.745269 1.9164 0.741277 2.37579C0.737285 2.83519 0.913885 3.27777 1.23304 3.60822L8.75651 11.1282L10.6437 13.0712Z" fill="#4BA088"/>
</svg>
