<svg width="15" height="25" viewBox="0 0 15 25" fill="none" xmlns="http://www.w3.org/2000/svg">
<path id="Vector Copy 15" d="M4.4974 12.2066L13.9045 3.12536C14.2237 2.79491 14.4003 2.35233 14.3963 1.89293C14.3923 1.43354 14.208 0.994088 13.8832 0.669234C13.5583 0.34438 13.1189 0.160115 12.6595 0.156123C12.2001 0.152131 11.7575 0.328733 11.4271 0.647893L0.914527 11.1605C0.752403 11.3217 0.62374 11.5133 0.535939 11.7244C0.448139 11.9355 0.402934 12.1619 0.402919 12.3905C0.402919 12.6253 0.44847 12.853 0.539578 13.0668C0.626904 13.2792 0.755546 13.4722 0.918034 13.6345L11.4306 24.1471C11.761 24.4662 12.2036 24.6428 12.663 24.6388C13.1224 24.6349 13.5618 24.4506 13.8867 24.1257C14.2115 23.8009 14.3958 23.3614 14.3998 22.902C14.4038 22.4426 14.2272 22.0001 13.908 21.6696L6.38455 14.1496L4.4974 12.2066Z" fill="#B3B3B3"/>
</svg>
