<svg width="10" height="16" viewBox="0 0 10 16" fill="none" xmlns="http://www.w3.org/2000/svg">
<path id="Vector Copy 15" d="M3.45575 7.9615L9.21896 2.398C9.41449 2.19555 9.52268 1.92441 9.52023 1.64297C9.51779 1.36152 9.4049 1.0923 9.20588 0.893283C9.00686 0.694265 8.73764 0.581378 8.4562 0.578932C8.17475 0.576486 7.90361 0.68468 7.70116 0.880209L1.26072 7.32063C1.1614 7.41938 1.08257 7.53679 1.02878 7.6661C0.974993 7.79542 0.947299 7.9341 0.947289 8.07416C0.947289 8.21799 0.975197 8.35754 1.03101 8.48849C1.08451 8.61862 1.16332 8.73684 1.26287 8.83627L7.70331 15.2767C7.90575 15.4722 8.1769 15.5804 8.45834 15.578C8.73979 15.5755 9.00901 15.4626 9.20803 15.2636C9.40705 15.0646 9.51994 14.7954 9.52238 14.5139C9.52483 14.2325 9.41663 13.9613 9.2211 13.7589L4.6119 9.15185L3.45575 7.9615Z" fill="#4BA088"/>
</svg>
