<svg width="9" height="16" viewBox="0 0 9 16" fill="none" xmlns="http://www.w3.org/2000/svg">
<path id="Vector Copy 15" d="M6.43731 8.47112L0.674072 14.0347C0.478542 14.2372 0.370348 14.5083 0.372794 14.7897C0.375239 15.0712 0.488128 15.3404 0.687147 15.5394C0.886166 15.7385 1.15539 15.8514 1.43684 15.8538C1.71828 15.8562 1.98943 15.748 2.19188 15.5525L8.63234 9.112C8.73167 9.01325 8.81049 8.89584 8.86428 8.76652C8.91807 8.6372 8.94577 8.49852 8.94578 8.35846C8.94578 8.21462 8.91787 8.07508 8.86205 7.94412C8.80855 7.81398 8.72974 7.69577 8.63019 7.59633L2.18973 1.15581C1.98728 0.960282 1.71614 0.852087 1.43469 0.854533C1.15325 0.856978 0.88402 0.969869 0.685001 1.16889C0.485982 1.36791 0.373092 1.63714 0.370646 1.91858C0.3682 2.20003 0.476394 2.47118 0.671925 2.67363L5.28115 7.28075L6.43731 8.47112Z" fill="#FF0016"/>
</svg>
